<svg xmlns="http://www.w3.org/2000/svg" viewBox="0 0 48 60" x="0px" y="0px"><g data-name="Layer 6"><path d="M15,9a6,6,0,1,0,6,6A6,6,0,0,0,15,9Zm0,10a4,4,0,1,1,4-4A4,4,0,0,1,15,19Z"/><path d="M13,14h0a1,1,0,1,0,1,1A1,1,0,0,0,13,14Z"/><path d="M17,14h0a1,1,0,1,0,1,1A1,1,0,0,0,17,14Z"/><path d="M15,23a6,6,0,1,0,6,6A6,6,0,0,0,15,23Zm0,10a4,4,0,1,1,4-4A4,4,0,0,1,15,33Z"/><path d="M13,28h0a1,1,0,1,0,1,1A1,1,0,0,0,13,28Z"/><path d="M17,28h0a1,1,0,1,0,1,1A1,1,0,0,0,17,28Z"/><path d="M40,27V25a2,2,0,0,0-2-2h-.18V9a4,4,0,0,0-4-4H31a4,4,0,0,0-4,4V39a2,2,0,0,1-2,2H18a2,2,0,0,1-2-2h6a3,3,0,0,0,3-3V8a3,3,0,0,0-3-3H8A3,3,0,0,0,5,8V36a3,3,0,0,0,3,3h6a4,4,0,0,0,4,4h7a4,4,0,0,0,4-4V9a2,2,0,0,1,2-2h2.82a2,2,0,0,1,2,2V23A2,2,0,0,0,34,25v2a3,3,0,0,0-3,3v8a1,1,0,0,0,1,1h1v3a1,1,0,0,0,2,0V39h4v3a1,1,0,0,0,2,0V39h1a1,1,0,0,0,1-1V30A3,3,0,0,0,40,27ZM8,37a1,1,0,0,1-1-1V8A1,1,0,0,1,8,7H22a1,1,0,0,1,1,1V36a1,1,0,0,1-1,1ZM36,25h.71l.11,0,.11,0H38v2H36Zm5,12H33V30a1,1,0,0,1,1-1h6a1,1,0,0,1,1,1Z"/></g><text x="0" y="63" fill="#000000" font-size="5px" font-weight="bold" font-family="'Helvetica Neue', Helvetica, Arial-Unicode, Arial, Sans-serif">Created by Ahmad Roaayala</text><text x="0" y="68" fill="#000000" font-size="5px" font-weight="bold" font-family="'Helvetica Neue', Helvetica, Arial-Unicode, Arial, Sans-serif">from the Noun Project</text></svg>